<svg width="20" height="18" viewBox="0 0 20 18" fill="none" xmlns="http://www.w3.org/2000/svg">
<path d="M8.98254 0.326472C9.26134 0.140409 9.58581 0.0343392 9.92068 0.0197938C10.2555 0.00524841 10.588 0.0827843 10.8819 0.243972L11.0166 0.326472L18.35 5.21505C18.5797 5.36815 18.7719 5.57116 18.9122 5.80893C19.0525 6.0467 19.1373 6.31309 19.1603 6.58822L19.1667 6.74039V15.4166C19.1669 15.8792 18.9922 16.3247 18.6777 16.6638C18.3632 17.003 17.9321 17.2107 17.4709 17.2454L17.3334 17.25H2.66671C2.20418 17.2501 1.75869 17.0754 1.41954 16.7609C1.08039 16.4464 0.872647 16.0154 0.837957 15.5541L0.833374 15.4166V6.74039C0.833379 6.46438 0.895702 6.19194 1.0157 5.94338C1.13569 5.69482 1.31026 5.47656 1.52637 5.30489L1.65012 5.21505L8.98254 0.326472ZM17.3334 7.96231L10.7627 12.344C10.5368 12.4945 10.2715 12.5749 10 12.5749C9.7286 12.5749 9.46323 12.4945 9.23737 12.344L2.66671 7.96139V15.4166H17.3334V7.96231ZM10 1.85181L3.40279 6.24997L10 10.6481L16.5973 6.24997L10 1.85181Z" fill="white"/>
</svg>
