<svg width="18" height="20" viewBox="0 0 18 20" fill="none" xmlns="http://www.w3.org/2000/svg">
<path fill-rule="evenodd" clip-rule="evenodd" d="M9 0.833252C11.188 0.833252 13.2865 1.70245 14.8336 3.24962C16.3808 4.7968 17.25 6.89522 17.25 9.08325C17.25 11.9011 15.7137 14.2074 14.0948 15.862C13.286 16.6797 12.4035 17.4211 11.4585 18.0767L11.068 18.3425L10.8847 18.4644L10.5391 18.6844L10.2311 18.8723L9.84975 19.0942C9.59091 19.2419 9.29803 19.3196 9 19.3196C8.70197 19.3196 8.40909 19.2419 8.15025 19.0942L7.76892 18.8723L7.29225 18.579L7.11625 18.4644L6.74042 18.2142C5.72093 17.5244 4.77133 16.7366 3.90517 15.862C2.28633 14.2065 0.75 11.9011 0.75 9.08325C0.75 6.89522 1.61919 4.7968 3.16637 3.24962C4.71354 1.70245 6.81196 0.833252 9 0.833252ZM9 2.66659C7.29819 2.66659 5.66609 3.34262 4.46273 4.54598C3.25937 5.74934 2.58333 7.38145 2.58333 9.08325C2.58333 11.2118 3.74933 13.0799 5.21508 14.5796C5.84532 15.2176 6.52652 15.8031 7.25192 16.3304L7.67175 16.6293C7.80742 16.724 7.93789 16.812 8.06317 16.8933L8.42067 17.1224L8.73508 17.314L9 17.4689L9.41708 17.2223L9.7535 17.0115C9.93256 16.8978 10.1241 16.7704 10.3283 16.6293L10.7481 16.3304C11.4735 15.8031 12.1547 15.2176 12.7849 14.5796C14.2507 13.0808 15.4167 11.2118 15.4167 9.08325C15.4167 7.38145 14.7406 5.74934 13.5373 4.54598C12.3339 3.34262 10.7018 2.66659 9 2.66659ZM9 5.41659C9.97246 5.41659 10.9051 5.80289 11.5927 6.49053C12.2804 7.17816 12.6667 8.11079 12.6667 9.08325C12.6667 10.0557 12.2804 10.9883 11.5927 11.676C10.9051 12.3636 9.97246 12.7499 9 12.7499C8.02754 12.7499 7.09491 12.3636 6.40728 11.676C5.71964 10.9883 5.33333 10.0557 5.33333 9.08325C5.33333 8.11079 5.71964 7.17816 6.40728 6.49053C7.09491 5.80289 8.02754 5.41659 9 5.41659ZM9 7.24992C8.51377 7.24992 8.04745 7.44307 7.70364 7.78689C7.35982 8.13071 7.16667 8.59702 7.16667 9.08325C7.16667 9.56948 7.35982 10.0358 7.70364 10.3796C8.04745 10.7234 8.51377 10.9166 9 10.9166C9.48623 10.9166 9.95255 10.7234 10.2964 10.3796C10.6402 10.0358 10.8333 9.56948 10.8333 9.08325C10.8333 8.59702 10.6402 8.13071 10.2964 7.78689C9.95255 7.44307 9.48623 7.24992 9 7.24992Z" fill="white"/>
</svg>
