<svg width="21" height="22" viewBox="0 0 21 22" fill="none" xmlns="http://www.w3.org/2000/svg">
<path d="M11.8792 1.83334C13.7476 2.03021 15.4928 2.85891 16.8263 4.18237C18.1598 5.50584 19.0016 7.2448 19.2125 9.11167M11.8792 5.50001C12.7807 5.67778 13.608 6.12245 14.2537 6.77629C14.8994 7.43013 15.3336 8.26296 15.5 9.16667M19.1667 15.51V18.26C19.1677 18.5153 19.1154 18.768 19.0132 19.0019C18.9109 19.2358 18.7609 19.4458 18.5728 19.6184C18.3846 19.791 18.1625 19.9224 17.9207 20.0042C17.6789 20.0859 17.4226 20.1163 17.1684 20.0933C14.3477 19.7865 11.6383 18.8227 9.25752 17.2792C7.0427 15.8718 5.16491 13.994 3.75752 11.7792C2.20864 9.38763 1.24458 6.66501 0.943353 3.83167C0.920446 3.57819 0.950572 3.3227 1.03181 3.0815C1.11305 2.84029 1.24363 2.61864 1.41522 2.43066C1.58682 2.24268 1.79567 2.09249 2.0285 1.98965C2.26132 1.88681 2.513 1.83358 2.76752 1.83334H5.51752C5.96238 1.82896 6.39366 1.9865 6.73097 2.27658C7.06827 2.56666 7.28859 2.9695 7.35085 3.41001C7.46662 4.29013 7.68188 5.15427 7.99252 5.98584C8.11585 6.31394 8.14254 6.67051 8.06944 7.01331C7.99633 7.35612 7.82648 7.67078 7.58002 7.92001L6.41585 9.08417C7.72078 11.3791 9.62094 13.2792 11.9159 14.5842L13.08 13.42C13.3293 13.1736 13.6439 13.0037 13.9867 12.9306C14.3295 12.8575 14.6861 12.8842 15.0142 13.0075C15.8458 13.3181 16.7099 13.5334 17.59 13.6492C18.0353 13.712 18.442 13.9363 18.7327 14.2794C19.0234 14.6225 19.1778 15.0605 19.1667 15.51Z" stroke="white" stroke-width="1.83333" stroke-linecap="round" stroke-linejoin="round"/>
</svg>
