<svg width="35" height="35" viewBox="0 0 35 35" fill="none" xmlns="http://www.w3.org/2000/svg">
<path d="M32.4698 3.54084C32.0545 3.19573 31.5534 2.96956 31.0198 2.88637C30.4863 2.80317 29.9401 2.86606 29.4394 3.06834L3.30463 13.6194C2.74587 13.8494 2.27025 14.2438 1.94086 14.7503C1.61147 15.2569 1.44388 15.8516 1.46033 16.4556C1.47679 17.0597 1.6765 17.6444 2.03298 18.1323C2.38946 18.6201 2.88585 18.9881 3.45629 19.1873L8.74275 21.0263L11.6886 30.7708C11.729 30.9008 11.7874 31.0245 11.8621 31.1383C11.8738 31.1558 11.8898 31.1675 11.9015 31.1865C11.9876 31.3059 12.0914 31.4116 12.2092 31.5L12.3113 31.5729C12.4496 31.6642 12.6025 31.7313 12.7634 31.7713L12.7823 31.7727L12.7911 31.7771C12.8885 31.7969 12.9877 31.8067 13.0871 31.8063L13.1134 31.8019C13.2627 31.7992 13.4108 31.7737 13.5523 31.726C13.5844 31.7124 13.6155 31.6979 13.6457 31.6823C13.7515 31.6388 13.8518 31.583 13.9446 31.5161L14.1663 31.3279L18.1067 26.9777L23.9838 31.5306C24.5009 31.9339 25.1378 32.153 25.7936 32.1533C26.4808 32.1525 27.1469 31.9155 27.68 31.4819C28.2132 31.0483 28.5811 30.4445 28.7219 29.7719L33.4805 6.41376C33.5881 5.88826 33.5509 5.34339 33.3729 4.83738C33.1949 4.33136 32.8828 3.88322 32.4698 3.54084ZM13.6646 21.49C13.4631 21.6919 13.3252 21.9485 13.268 22.2279L12.8159 24.4213L11.6725 20.6398L17.6007 17.5525L13.6646 21.49ZM25.7717 29.225L18.8257 23.8438C18.5352 23.6192 18.1706 23.5124 17.8048 23.5448C17.4391 23.5773 17.099 23.7465 16.8525 24.0188L15.5896 25.4115L16.0359 23.2429L26.3652 12.9135C26.6103 12.667 26.7593 12.3409 26.7852 11.9942C26.8111 11.6476 26.7123 11.303 26.5066 11.0227C26.3009 10.7424 26.0019 10.5448 25.6634 10.4656C25.3249 10.3863 24.9692 10.4306 24.6605 10.5904L9.8365 18.3079L4.40421 16.3202L30.6236 5.83334L25.7717 29.225Z" fill="#000C5F"/>
</svg>
