<svg width="22" height="22" viewBox="0 0 22 22" fill="none" xmlns="http://www.w3.org/2000/svg">
<path d="M11 19.2501C12.0834 19.2501 13.1562 19.0367 14.1571 18.6221C15.158 18.2075 16.0675 17.5998 16.8336 16.8337C17.5997 16.0676 18.2074 15.1582 18.622 14.1572C19.0366 13.1563 19.25 12.0835 19.25 11.0001C19.25 9.91668 19.0366 8.84388 18.622 7.84294C18.2074 6.84201 17.5997 5.93253 16.8336 5.16645C16.0675 4.40037 15.158 3.79268 14.1571 3.37808C13.1562 2.96347 12.0834 2.75008 11 2.75008C8.81192 2.75008 6.7135 3.61928 5.16633 5.16645C3.61915 6.71363 2.74996 8.81205 2.74996 11.0001C2.74996 13.1881 3.61915 15.2865 5.16633 16.8337C6.7135 18.3809 8.81192 19.2501 11 19.2501ZM21.0833 11.0001C21.0833 16.5688 16.5687 21.0834 11 21.0834C5.43121 21.0834 0.916626 16.5688 0.916626 11.0001C0.916626 5.43133 5.43121 0.916748 11 0.916748C16.5687 0.916748 21.0833 5.43133 21.0833 11.0001ZM13.75 15.0462L10.0833 11.3796V5.04175H11.9166V10.6206L15.0461 13.7501L13.75 15.0462Z" fill="white"/>
</svg>
