<svg width="35" height="35" viewBox="0 0 35 35" fill="none" xmlns="http://www.w3.org/2000/svg">
<g clip-path="url(#clip0_77_149)">
<path d="M17.5001 5.83334C18.747 5.83334 20.0259 5.86543 21.2655 5.91793L22.7297 5.98793L24.1311 6.07105L25.4436 6.16001L26.6424 6.25334C27.9435 6.35235 29.1679 6.90731 30.1 7.82047C31.0321 8.73363 31.6121 9.94642 31.7378 11.2452L31.7961 11.865L31.9055 13.1921C32.0076 14.5673 32.0834 16.0665 32.0834 17.5C32.0834 18.9336 32.0076 20.4327 31.9055 21.8079L31.7961 23.135L31.7378 23.7548C31.612 25.0538 31.0319 26.2668 30.0995 27.18C29.1671 28.0932 27.9423 28.648 26.6409 28.7467L25.4451 28.8386L24.1326 28.929L22.7297 29.0121L21.2655 29.0821C20.0111 29.1364 18.7557 29.1646 17.5001 29.1667C16.2445 29.1646 14.9891 29.1364 13.7347 29.0821L12.2705 29.0121L10.869 28.929L9.55654 28.8386L8.35779 28.7467C7.05668 28.6477 5.83225 28.0927 4.90015 27.1795C3.96804 26.2664 3.38807 25.0536 3.26237 23.7548L3.20404 23.135L3.09466 21.8079C2.98359 20.3746 2.92424 18.9377 2.91675 17.5C2.91675 16.0665 2.99258 14.5673 3.09466 13.1921L3.20404 11.865L3.26237 11.2452C3.38802 9.94665 3.96779 8.73404 4.89959 7.82091C5.83139 6.90778 7.05549 6.35268 8.35633 6.25334L9.55362 6.16001L10.8661 6.07105L12.269 5.98793L13.7332 5.91793C14.9881 5.86357 16.244 5.83537 17.5001 5.83334ZM17.5001 8.75001C16.297 8.75001 15.0588 8.78209 13.8542 8.83168L12.428 8.90022L11.0586 8.98043L9.77237 9.06793L8.59404 9.1598C7.97453 9.20317 7.39046 9.46478 6.94563 9.89813C6.50079 10.3315 6.22401 10.9085 6.16446 11.5267C5.99383 13.2898 5.83341 15.4846 5.83341 17.5C5.83341 19.5154 5.99383 21.7102 6.16446 23.4733C6.28841 24.745 7.29758 25.7338 8.59404 25.8402L9.77237 25.9306L11.0586 26.0181L12.428 26.0998L13.8542 26.1683C15.0588 26.2179 16.297 26.25 17.5001 26.25C18.7032 26.25 19.9413 26.2179 21.1459 26.1683L22.5722 26.0998L23.9415 26.0196L25.2278 25.9321L26.4061 25.8402C27.0256 25.7968 27.6097 25.5352 28.0545 25.1019C28.4994 24.6685 28.7762 24.0915 28.8357 23.4733C29.0063 21.7102 29.1667 19.5154 29.1667 17.5C29.1667 15.4846 29.0063 13.2898 28.8357 11.5267C28.7762 10.9085 28.4994 10.3315 28.0545 9.89813C27.6097 9.46478 27.0256 9.20317 26.4061 9.1598L25.2278 9.06939L23.9415 8.98189L22.5722 8.90022L21.1459 8.83168C19.9313 8.77955 18.7158 8.75232 17.5001 8.75001ZM14.5834 13.9636C14.5833 13.821 14.618 13.6806 14.6846 13.5546C14.7511 13.4285 14.8474 13.3206 14.9651 13.2403C15.0829 13.1599 15.2184 13.1095 15.3601 13.0935C15.5017 13.0775 15.6451 13.0963 15.7778 13.1483L15.8959 13.2067L22.0209 16.7417C22.1429 16.8121 22.2461 16.9108 22.3217 17.0296C22.3973 17.1484 22.4432 17.2837 22.4553 17.424C22.4675 17.5642 22.4456 17.7054 22.3916 17.8354C22.3375 17.9655 22.2529 18.0805 22.1449 18.1708L22.0209 18.2583L15.8959 21.7948C15.7725 21.8663 15.6335 21.9065 15.4909 21.912C15.3484 21.9174 15.2067 21.8879 15.0782 21.8261C14.9496 21.7643 14.8382 21.672 14.7534 21.5572C14.6687 21.4425 14.6134 21.3088 14.5922 21.1677L14.5834 21.0365V13.9636Z" fill="#000C5F"/>
</g>
<defs>
<clipPath id="clip0_77_149">
<rect width="35" height="35" fill="white"/>
</clipPath>
</defs>
</svg>
